<svg id="Layer_1" enable-background="new 0 0 512 512" height="512" viewBox="0 0 512 512" width="512" xmlns="http://www.w3.org/2000/svg"><g><path d="m497 328.733h-15.125v-214.154c0-28.501-23.187-51.688-51.688-51.688h-348.374c-28.501 0-51.688 23.187-51.688 51.688v214.154h-15.125c-8.284 0-15 6.716-15 15v59.438c0 25.33 20.607 45.938 45.938 45.938h420.125c25.33 0 45.938-20.607 45.938-45.938v-59.438c-.001-8.284-6.717-15-15.001-15zm-436.875-214.154c0-11.959 9.729-21.688 21.688-21.688h348.375c11.959 0 21.688 9.729 21.688 21.688v214.154h-135.626c-4.546 0-8.847 2.062-11.694 5.605l-23.926 29.784c-1.077 1.341-2.683 2.11-4.404 2.11h-40.451c-1.722 0-3.327-.77-4.404-2.111l-23.926-29.783c-2.848-3.544-7.148-5.605-11.694-5.605h-135.626zm421.875 288.592c0 8.788-7.149 15.938-15.938 15.938h-420.124c-8.788 0-15.938-7.149-15.938-15.938v-44.438h158.56l19.422 24.177c6.801 8.467 16.932 13.323 27.793 13.323h40.451c10.861 0 20.992-4.856 27.793-13.322l19.422-24.178h158.559z"/><path d="m256 293.483c24.882 0 45.125-20.243 45.125-45.125v-60.25c0-24.882-20.243-45.125-45.125-45.125s-45.125 20.243-45.125 45.125v60.25c0 24.882 20.243 45.125 45.125 45.125zm-15.125-105.375c0-8.34 6.785-15.125 15.125-15.125s15.125 6.785 15.125 15.125v60.25c0 8.34-6.785 15.125-15.125 15.125s-15.125-6.785-15.125-15.125z"/><path d="m165.625 142.983c-8.284 0-15 6.716-15 15v45.25h-30.25v-45.25c0-8.284-6.716-15-15-15s-15 6.716-15 15v60.25c0 8.284 6.716 15 15 15h45.25v45.25c0 8.284 6.716 15 15 15s15-6.716 15-15v-120.5c0-8.284-6.716-15-15-15z"/><path d="m346.375 233.233h45.25v45.25c0 8.284 6.716 15 15 15s15-6.716 15-15v-120.5c0-8.284-6.716-15-15-15s-15 6.716-15 15v45.25h-30.25v-45.25c0-8.284-6.716-15-15-15s-15 6.716-15 15v60.25c0 8.285 6.716 15 15 15z"/></g></svg>