<svg id="Layer_1" enable-background="new 0 0 512 512" height="512" viewBox="0 0 512 512" width="512" xmlns="http://www.w3.org/2000/svg"><g><path d="m447.118 276.333c-5.568-6.769-11.668-13.559-18.228-20.333 6.56-6.775 12.659-13.565 18.228-20.333 35.145-42.719 46.006-80.956 30.584-107.667-.907-1.571-1.901-3.078-2.966-4.531.914-3.575 1.402-7.318 1.402-11.173 0-24.882-20.243-45.125-45.125-45.125-19.958 0-36.921 13.03-42.857 31.026-6.091.551-12.42 1.365-18.988 2.457-8.646 1.438-17.576 3.325-26.723 5.619-2.587-9.068-5.418-17.746-8.495-25.953-19.424-51.795-47.107-80.32-77.95-80.32s-58.526 28.525-77.95 80.32c-3.078 8.207-5.909 16.884-8.495 25.953-9.147-2.294-18.077-4.181-26.723-5.619-54.567-9.077-93.113.635-108.534 27.346-15.422 26.711-4.56 64.948 30.584 107.667 5.569 6.768 11.668 13.558 18.228 20.333-6.56 6.775-12.659 13.565-18.228 20.333-35.144 42.719-46.006 80.956-30.584 107.667 11.652 20.183 36.506 30.661 71.501 30.661 11.318 0 23.697-1.096 37.033-3.314 8.646-1.438 17.576-3.325 26.723-5.619 2.587 9.068 5.418 17.746 8.495 25.953 19.424 51.794 47.107 80.319 77.95 80.319s58.526-28.525 77.95-80.32c3.078-8.207 5.909-16.884 8.495-25.953 9.147 2.294 18.077 4.181 26.723 5.619 9.368 1.558 18.25 2.55 26.636 3.01 7.172 15.448 22.824 26.192 40.946 26.192 24.882 0 45.125-20.243 45.125-45.125 0-5.141-.876-10.078-2.466-14.685 12.793-26.516 1.45-63.392-32.291-104.405zm-10.368 103.966c8.34 0 15.125 6.785 15.125 15.125s-6.785 15.125-15.125 15.125-15.125-6.785-15.125-15.125 6.785-15.125 15.125-15.125zm9.388-268.003c0 8.34-6.785 15.125-15.125 15.125s-15.125-6.785-15.125-15.125 6.785-15.125 15.125-15.125 15.125 6.785 15.125 15.125zm-72.047 17.951c5.098-.848 10.005-1.5 14.725-1.982 6.464 17.022 22.936 29.156 42.197 29.156 8.53 0 16.513-2.38 23.324-6.509 2.165 15.579-8.631 39.252-30.387 65.695-5.094 6.191-10.681 12.412-16.697 18.626-14.68-13.152-30.986-26.089-48.564-38.521-1.977-21.439-5.028-42.029-9.078-61.318 8.39-2.103 16.571-3.831 24.48-5.147zm-80.403 191.03c-12.546 7.244-25.15 13.953-37.688 20.095-12.537-6.142-25.141-12.852-37.688-20.095-12.546-7.244-24.659-14.804-36.247-22.591-.949-13.929-1.44-28.199-1.44-42.686 0-3.507.033-6.999.089-10.479 17.482-6.223 30.036-22.93 30.036-42.521 0-2.542-.222-5.032-.628-7.46 2.711-1.619 5.437-3.227 8.19-4.817 12.546-7.244 25.15-13.953 37.688-20.095 12.537 6.142 25.141 12.852 37.688 20.095 12.546 7.244 24.659 14.804 36.247 22.591.949 13.929 1.44 28.199 1.44 42.686s-.491 28.757-1.44 42.686c-11.588 7.787-23.701 15.347-36.247 22.591zm32.365 15.595c-1.475 10.765-3.247 21.213-5.306 31.274-9.742-3.248-19.676-6.937-29.737-11.042 5.902-3.173 11.798-6.452 17.677-9.846 5.879-3.395 11.667-6.862 17.366-10.386zm-105.063 20.231c-10.06 4.106-19.995 7.795-29.737 11.042-2.059-10.061-3.831-20.509-5.306-31.274 5.698 3.525 11.486 6.992 17.365 10.386 5.879 3.395 11.776 6.674 17.678 9.846zm-55.365-169.228c8.34 0 15.125 6.785 15.125 15.125s-6.785 15.125-15.125 15.125-15.125-6.785-15.125-15.125 6.785-15.125 15.125-15.125zm29.95-18.588c-2.422-2.154-5.077-4.05-7.922-5.648 1.08-6.742 2.281-13.342 3.599-19.784 9.742 3.248 19.676 6.937 29.737 11.042-5.902 3.173-11.798 6.452-17.677 9.846-2.598 1.5-5.173 3.018-7.737 4.544zm-52.553 72.744c2.43 1.413 5.001 2.606 7.69 3.55-.054 3.462-.087 6.934-.087 10.419 0 6.788.108 13.534.312 20.232-8.586-6.66-16.748-13.418-24.431-20.232 5.285-4.687 10.795-9.348 16.516-13.969zm147.988-87.134c10.06-4.106 19.995-7.795 29.737-11.042 2.059 10.061 3.831 20.509 5.306 31.274-5.698-3.525-11.486-6.992-17.365-10.386-5.879-3.395-11.776-6.674-17.678-9.846zm70.053 80.871c8.586 6.66 16.748 13.418 24.431 20.232-7.683 6.813-15.845 13.572-24.431 20.232.203-6.697.312-13.443.312-20.232s-.108-13.534-.312-20.232zm-154.923-144.914c14.29-38.105 32.929-60.854 49.86-60.854s35.57 22.749 49.86 60.854c2.815 7.507 5.408 15.456 7.782 23.774-18.73 6.137-38.087 13.79-57.642 22.797-19.555-9.007-38.912-16.66-57.642-22.797 2.374-8.318 4.967-16.267 7.782-23.774zm-145.862 52.146c5.946-10.298 22.025-15.714 44.982-15.714 9.73 0 20.699.974 32.649 2.961 7.909 1.316 16.089 3.044 24.48 5.147-1.578 7.517-3.004 15.232-4.274 23.117-21.318 3.588-37.615 22.166-37.615 44.489 0 5.723 1.082 11.195 3.034 16.237-6.518 5.283-12.788 10.622-18.787 15.996-6.016-6.215-11.604-12.435-16.697-18.626-25.856-31.427-36.237-58.944-27.772-73.607zm77.631 238.753c-40.144 6.676-69.165 1.91-77.631-12.753s1.916-42.18 27.771-73.607c5.094-6.191 10.681-12.412 16.697-18.626 14.68 13.152 30.986 26.089 48.564 38.521 1.977 21.439 5.028 42.029 9.078 61.318-8.389 2.103-16.57 3.831-24.479 5.147zm167.951 39.393c-14.29 38.105-32.929 60.854-49.86 60.854s-35.57-22.749-49.86-60.854c-2.815-7.507-5.408-15.456-7.782-23.774 18.73-6.137 38.087-13.79 57.642-22.797 19.555 9.007 38.912 16.66 57.642 22.797-2.374 8.318-4.967 16.267-7.782 23.774zm43.751-44.54c4.051-19.289 7.101-39.879 9.078-61.318 17.578-12.432 33.884-25.369 48.564-38.521 6.016 6.215 11.604 12.435 16.697 18.626 18.648 22.666 29.243 43.296 30.527 58.539-5.445-2.335-11.437-3.633-17.727-3.633-20.983 0-38.666 14.396-43.693 33.829-5.992-.485-12.323-1.27-18.966-2.375-7.909-1.316-16.09-3.044-24.48-5.147z"/></g></svg>