<svg id="Capa_1" enable-background="new 0 0 512 512" height="512" viewBox="0 0 512 512" width="512" xmlns="http://www.w3.org/2000/svg"><g><path d="m481.284 443.672-134.595-241.569v-187.103c0-8.284-6.716-15-15-15h-147.42c-8.284 0-15 6.716-15 15v187.005l-138.25 241.178c-18.678 29.911 2.741 68.817 38.181 68.817h373.6c35.171 0 56.649-38.398 38.484-68.328zm-282.015-286.422h29.73c8.284 0 15-6.716 15-15s-6.716-15-15-15h-29.73v-33.5h29.73c8.284 0 15-6.716 15-15s-6.716-15-15-15h-29.73v-33.75h117.42v161h-117.42zm243.53 324.75h-373.599c-11.832 0-19.015-13.045-12.66-23.045.122-.192.24-.387.354-.585l136.067-237.37h129.915l132.35 237.541c.109.196.223.39.341.582 6.179 10.003-1.024 22.877-12.768 22.877z"/><path d="m319.473 283.652c-59.882-9.197-103.468.997-129.544 30.303-40.456 45.467-20.974 118.358-20.125 121.439 1.404 5.092 5.383 9.071 10.475 10.475 1.528.421 20.237 5.428 44.255 5.428 75.646 0 123.921-48.119 107.487-155.097-.995-6.473-6.075-11.554-12.548-12.548zm-103.604 137.365 43.379-43.379c5.858-5.858 5.858-15.355 0-21.213-5.857-5.858-15.355-5.858-21.213 0l-43.378 43.378c-1.209-20.245 1.087-47.325 17.757-65.989 17.444-19.531 48.175-26.911 91.439-21.995 8.046 70.799-16.289 113.481-87.984 109.198z"/></g></svg>