<svg id="Capa_1" enable-background="new 0 0 508 508" height="512" viewBox="0 0 508 508" width="512" xmlns="http://www.w3.org/2000/svg"><g><g><circle cx="402.828" cy="134.936" r="14.883"/><path d="m493.117 149.819h-15.875c0-49.238-40.059-89.297-89.297-89.297-24.504 0-48.199 10.233-65.007 28.076l-258.169 274.05-60.322 59.334c-4.308 4.237-5.626 10.657-3.337 16.249 2.289 5.591 7.731 9.244 13.774 9.244h5.107c55.939 0 110.506-21.63 150.732-59.531h44.315l25.652 51.304c3.676 7.354 12.617 10.332 19.967 6.656 7.352-3.676 10.332-12.616 6.656-19.968l-18.996-37.993h5.683c6.77 0 13.458-.353 20.051-1.035l26.169 52.339c3.676 7.354 12.617 10.332 19.967 6.656 7.352-3.676 10.332-12.616 6.656-19.968l-22.345-44.691c82.272-22.265 142.979-97.559 142.979-186.776 0-8.206 6.676-14.883 14.883-14.883h30.758c8.219 0 14.883-6.664 14.883-14.883-.001-8.22-6.664-14.883-14.884-14.883zm-255.97 73.257c.249-.173 11.761-13.726 31.782-13.726 26.432 0 40.867 19.342 43.45 38.51 3.716 27.588-13.255 50.787-58.377 50.787h-88.046zm-182.697 191.473 27.049-26.615h40.891c-20.614 13.078-43.761 22.158-67.94 26.615zm392.962-262.149c-17.289 6.161-29.701 22.688-29.701 42.067 0 90.27-73.441 163.711-163.711 163.711-15.465 0-130.026 0-144.127 0l28.04-29.766h116.086c64.321 0 93.876-39.977 87.876-84.525-4.441-32.968-28.769-60.048-64.208-63.825l66.936-71.054c11.374-12.073 26.766-18.721 43.343-18.721 32.826 0 59.531 26.706 59.531 59.531 0 .862-.027 1.722-.065 2.582z"/></g></g></svg>