<svg id="Capa_1" enable-background="new 0 0 508.001 508.001" height="512" viewBox="0 0 508.001 508.001" width="512" xmlns="http://www.w3.org/2000/svg"><g><g><circle cx="283.766" cy="133.946" r="14.883"/><path d="m436.668 232.043c-4.705-2.186-10.21-1.762-14.525 1.115l-34.198 22.798v-88.073l52.788-86.723c2.797-4.595 2.897-10.341.262-15.03-2.634-4.689-7.595-7.592-12.974-7.592h-91.166c-14.753-11.647-32.007-20.256-50.81-24.889l8.244-8.244c5.812-5.811 5.812-15.235 0-21.047-5.81-5.812-15.234-5.812-21.047 0l-19.242 19.244-19.242-19.242c-5.811-5.812-15.235-5.812-21.047 0s-5.812 15.235 0 21.047l8.243 8.244c-58.432 14.4-101.899 67.246-101.899 130.06v92.246l-34.198-22.799c-4.316-2.877-9.819-3.299-14.525-1.115-4.705 2.185-7.933 6.662-8.519 11.816-1.519 13.364-2.29 26.791-2.29 39.908 0 142.367 88.912 224.234 193.477 224.234 104.56 0 193.477-81.863 193.477-224.234 0-13.115-.77-26.541-2.291-39.907-.585-5.154-3.814-9.631-8.518-11.817zm-55.47-110.319c-3.962-11.972-9.568-23.201-16.553-33.419h36.896zm-127.198-62.192c57.445 0 104.18 46.735 104.18 104.18v95.973l-37.993-18.996c-4.189-2.094-9.12-2.095-13.311 0l-52.876 26.438-52.876-26.438c-4.19-2.094-9.121-2.094-13.311 0l-37.993 18.995v-95.973c.001-57.444 46.736-104.179 104.18-104.179zm0 418.703c-97.92 0-163.711-78.152-163.711-194.469 0-3.883.074-7.798.221-11.732l36.172 24.115c4.444 2.963 10.135 3.317 14.911.929l52.876-26.438 52.876 26.438c4.189 2.095 9.122 2.095 13.311 0l52.876-26.438 52.876 26.438c4.776 2.388 10.469 2.033 14.911-.929l36.171-24.115c.148 3.934.222 7.848.222 11.732-.001 116.318-65.791 194.469-163.712 194.469z"/></g></g></svg>