<svg id="Capa_1" enable-background="new 0 0 512 512" height="512" viewBox="0 0 512 512" width="512" xmlns="http://www.w3.org/2000/svg"><path d="m256 0c-141.491 0-256 114.497-256 256 0 141.491 114.497 256 256 256 141.491 0 256-114.497 256-256 0-141.491-114.497-256-256-256zm69.941 82.112-14.909-45.322c68.219 17.133 124.219 65.354 152.013 128.665l-51.354 61.882c-12.173 14.667-33.56 18.139-49.746 8.077l-43.03-26.749c-20.505-12.747-24.246-41.017-7.839-58.667 16.947-18.231 22.643-44.243 14.865-67.886zm-285.421 105.705 40.158 16.291c14.089 5.715 23.929 23.754 23.929 43.868 0 31.57 16.471 60.086 40.985 70.96l17.584 7.8c7.915 3.511 14.811 11.297 18.916 21.361l54.282 133.041c-142.845-12.348-239.77-154.845-195.854-293.321zm311.182 272.888c-4.533-61.675-4.069-53.14-4.069-61.877 0-32.5 31.501-55.588 62.482-45.842l42.962 13.519c-23.082 41.004-58.585 74.115-101.375 94.2zm67.418-136.335c-49.238-15.496-106.039 20.348-101.277 84.95l4.609 62.705c-17.06 5.259-34.976 8.542-53.48 9.594l-59.102-144.854c-7.11-17.428-19.373-30.729-34.529-37.451l-17.584-7.8c-13.63-6.046-23.149-23.949-23.149-43.538 0-32.518-17.141-61.318-42.651-71.667l-40.469-16.417c39.541-83.809 128.195-138.163 226.07-128.858l19.886 60.452c4.363 13.265 1.168 27.858-8.339 38.085-29.299 31.517-22.51 81.89 13.973 104.57l43.031 26.75c28.844 17.932 66.968 11.753 88.67-14.396l39.807-47.968c11.838 44.988 9.853 94.575-8.442 140.64z"/></svg>