<svg id="Layer_1" enable-background="new 0 0 512 512" height="512" viewBox="0 0 512 512" width="512" xmlns="http://www.w3.org/2000/svg"><path d="m505.322 259.587-234.322-156.215v-9.105h81.399c3.978 0 7.794-1.58 10.607-4.394l32.134-32.133c5.858-5.858 5.858-15.355 0-21.213l-32.134-32.134c-2.813-2.813-6.628-4.393-10.606-4.393h-96.4c-8.284 0-15 6.716-15 15v88.372l-234.322 156.215c-4.173 2.782-6.678 7.465-6.678 12.481v224.932c0 8.284 6.716 15 15 15h482c8.284 0 15-6.716 15-15v-224.932c0-5.016-2.505-9.699-6.678-12.481zm-234.322-229.587h75.187l17.133 17.133-17.133 17.133h-75.187zm-15 114.941 56.063 112.126h-112.126zm-15 142.126v25.167c0 13.877-11.29 25.167-25.167 25.167s-25.167-11.29-25.167-25.167v-25.167zm-160.667 194.933h-50.333v-120.682c7.55 3.887 16.106 6.082 25.167 6.082s17.617-2.195 25.167-6.082v120.682zm0-169.767c0 13.877-11.29 25.167-25.167 25.167s-25.166-11.29-25.166-25.167v-25.167h50.333zm80.334 169.767h-50.333v-120.682c7.55 3.887 16.106 6.082 25.167 6.082s17.617-2.195 25.167-6.082v120.682zm0-169.767c0 13.877-11.29 25.167-25.167 25.167s-25.167-11.29-25.167-25.167v-25.167h50.333v25.167zm-96.125-55.166 152.782-101.854-50.927 101.854zm256.791 224.933h-130.666v-120.682c7.55 3.887 16.106 6.082 25.167 6.082.682 0 22.691 1.176 40.167-17.354 17.461 18.535 39.488 17.354 40.167 17.354 9.061 0 17.617-2.195 25.167-6.082v120.682zm0-169.767c0 13.877-11.29 25.167-25.167 25.167s-25.166-11.29-25.166-25.167v-25.167h50.333zm-26.656-157.021 152.782 101.854h-101.855zm106.99 326.788h-50.333v-120.682c7.55 3.887 16.106 6.082 25.167 6.082s17.617-2.195 25.167-6.082v120.682zm0-169.767c0 13.877-11.29 25.167-25.167 25.167s-25.167-11.29-25.167-25.167v-25.167h50.333v25.167zm80.333 169.767h-50.333v-120.682c7.55 3.887 16.106 6.082 25.167 6.082s17.617-2.195 25.167-6.082v120.682zm0-169.767c0 13.877-11.29 25.167-25.167 25.167s-25.167-11.29-25.167-25.167v-25.167h50.334z"/></svg>