<svg id="Layer_1" enable-background="new 0 0 512.041 512.041" height="512" viewBox="0 0 512.041 512.041" width="512" xmlns="http://www.w3.org/2000/svg"><g><path d="m479.142 377.411v-121.192c0-38.439-29.465-70.114-66.993-73.653v-26.438c0-86.089-70.039-156.128-156.128-156.128s-156.129 70.039-156.129 156.128v26.438c-37.528 3.54-66.993 35.215-66.993 73.653v121.192h66.993v73.481c0 17.176-13.973 31.149-31.149 31.149v30h11.762c16.488 0 32.966-3.959 47.653-11.45 3.83-1.953 8.125-2.986 12.424-2.986 4.298 0 8.595 1.033 12.424 2.986 8.03 4.096 17.04 6.261 26.055 6.261s18.024-2.165 26.055-6.261c3.83-1.953 8.125-2.986 12.424-2.986s8.595 1.033 12.425 2.986c8.03 4.096 17.04 6.261 26.055 6.261s18.024-2.165 26.055-6.261c3.83-1.953 8.125-2.986 12.424-2.986s8.595 1.033 12.425 2.986c8.03 4.096 17.04 6.261 26.055 6.261s18.024-2.165 26.055-6.261c3.83-1.953 8.125-2.986 12.424-2.986s8.595 1.033 12.424 2.986c14.687 7.491 31.165 11.45 47.653 11.45h11.762v-30c-17.176 0-31.149-13.973-31.149-31.149v-73.481zm-30-121.192v91.192h-36.993v-134.623c20.942 3.364 36.993 21.555 36.993 43.431zm-386.243 91.192v-91.192c0-21.876 16.051-40.067 36.993-43.43v134.623h-36.993zm308.56 120.194c-9.015 0-18.024 2.165-26.055 6.261-3.83 1.953-8.126 2.985-12.425 2.985s-8.595-1.032-12.424-2.985c-8.031-4.096-17.041-6.261-26.055-6.261s-18.024 2.165-26.055 6.261c-3.83 1.953-8.126 2.985-12.425 2.985s-8.595-1.032-12.424-2.985c-8.031-4.096-17.041-6.261-26.055-6.261s-18.024 2.165-26.055 6.261c-3.83 1.953-8.126 2.985-12.425 2.985s-8.595-1.032-12.424-2.985c-8.031-4.096-17.041-6.261-26.055-6.261-4.542 0-9.083.55-13.497 1.619 1.823-5.79 2.806-11.948 2.806-18.332v-294.764c.001-69.547 56.582-126.128 126.13-126.128s126.128 56.581 126.128 126.128v294.764c0 6.384.983 12.542 2.806 18.332-4.414-1.069-8.955-1.619-13.496-1.619z"/><path d="m236.716 172.288c0-22.441-18.258-40.699-40.699-40.699s-40.699 18.258-40.699 40.699 18.258 40.699 40.699 40.699 40.699-18.258 40.699-40.699zm-40.699 10.699c-5.899 0-10.699-4.8-10.699-10.699s4.8-10.699 10.699-10.699 10.699 4.8 10.699 10.699-4.8 10.699-10.699 10.699z"/><path d="m316.024 131.588c-22.441 0-40.699 18.258-40.699 40.699s18.258 40.699 40.699 40.699 40.699-18.258 40.699-40.699-18.257-40.699-40.699-40.699zm0 51.399c-5.899 0-10.699-4.8-10.699-10.699s4.8-10.699 10.699-10.699 10.699 4.8 10.699 10.699-4.799 10.699-10.699 10.699z"/><path d="m256.021 252.706c-27.187 0-49.305 22.118-49.305 49.305v75.401h98.609v-75.402c0-27.186-22.118-49.304-49.304-49.304zm19.304 94.705h-38.609v-45.401c0-10.645 8.66-19.305 19.305-19.305s19.305 8.66 19.305 19.305v45.401z"/></g></svg>