<svg id="Capa_1" enable-background="new 0 0 511.913 511.913" height="512" viewBox="0 0 511.913 511.913" width="512" xmlns="http://www.w3.org/2000/svg"><path d="m369.414 231.609v-13.298c0-47.387-29.205-88.074-70.558-105.027 6.655-8.918 10.6-19.972 10.6-31.93 0-6.126-1.049-12.009-2.953-17.494 14.746-6.453 33.666-19.211 42.555-43.746 2.822-7.789-1.205-16.39-8.993-19.213-7.79-2.822-16.391 1.205-19.213 8.993-6.635 18.312-23.31 25.959-32.559 28.877-8.989-6.843-20.195-10.916-32.338-10.916-43.986 0-69.062 50.37-42.899 85.43-41.353 16.953-70.558 57.64-70.558 105.027v13.298c-24.947 4.806-43.862 26.797-43.862 53.123 0 29.84 24.28 54.11 54.11 54.11h11.3l51.24 144.089c13.773 38.757 68.909 38.613 82.469-.25l31.24-89.559c22.4-6.16 38.89-26.7 38.89-51.029v-3.95c25.7-4.18 45.39-26.54 45.39-53.41 0-26.328-18.915-48.319-43.861-53.125zm-136.957-150.255c0-12.958 10.542-23.5 23.5-23.5s23.5 10.542 23.5 23.5-10.542 23.5-23.5 23.5-23.5-10.542-23.5-23.5zm23.499 53.5c46.019 0 83.457 37.439 83.457 83.457v12.311h-166.914v-12.311c0-46.019 37.439-83.457 83.457-83.457zm13.47 337.946c-1.92 5.5-7.12 9.2-12.95 9.2-5.79 0-10.98-3.67-12.92-9.12l-47.67-134.039h66.129c0 27.418 14.856 46.051 35.57 53.25zm89.74-163.958h-6.28c-8.301 0-15 6.723-15 15v18.25c0 12.65-10.29 22.93-22.94 22.93-12.577 0-22.93-10.228-22.93-22.93 0-10.606 0-7.998 0-18.25 0-8.29-6.72-15-15-15-4.676 0-118.356 0-124.269 0-13.29 0-24.11-10.82-24.11-24.11s10.82-24.11 24.11-24.11h206.418c13.29 0 24.11 10.82 24.11 24.11s-10.819 24.11-24.109 24.11z"/></svg>