<svg id="Layer_1" enable-background="new 0 0 512.25 512.25" height="512" viewBox="0 0 512.25 512.25" width="512" xmlns="http://www.w3.org/2000/svg"><g><path d="m256.125 0c-89.673 0-162.628 72.954-162.628 162.628 0 26.013 5.963 50.872 17.722 73.89 10.056 19.681 24.257 37.349 41.33 51.485v140.354c0 46.259 37.634 83.893 83.893 83.893h39.367c46.259 0 83.893-37.634 83.893-83.893v-140.354c17.073-14.137 31.274-31.805 41.33-51.485 11.759-23.018 17.722-47.877 17.722-73.89-.001-89.674-72.956-162.628-162.629-162.628zm-73.576 374.464h147.152v38.894h-147.152zm153.143-105.721c-3.771 2.833-5.991 7.275-5.991 11.993v63.728h-58.576v-130.131c0-8.284-6.716-15-15-15-13.233 0-24-10.767-24-24s10.767-24 24-24 24 10.767 24 24c0 8.284 6.716 15 15 15s15-6.716 15-15c0-29.775-24.225-54-54-54s-54 24.225-54 54c0 24.57 16.502 45.346 39 51.864v117.267h-58.576v-63.728c0-4.718-2.22-9.16-5.991-11.993-33.721-25.329-53.061-64.007-53.061-106.115 0-73.131 59.497-132.628 132.628-132.628s132.628 59.497 132.628 132.628c0 42.108-19.34 80.786-53.061 106.115zm-59.883 213.507h-39.367c-24.513 0-45.256-16.452-51.769-38.893h142.904c-6.513 22.441-27.256 38.893-51.768 38.893z"/><path d="m45.25 177.628c8.284 0 15-6.716 15-15s-6.716-15-15-15h-30.125c-8.284 0-15 6.716-15 15s6.716 15 15 15z"/><path d="m64.138 76.429-28.309-10.304c-7.784-2.832-16.393 1.181-19.227 8.965-2.833 7.785 1.181 16.393 8.965 19.227l28.309 10.304c1.694.616 3.426.908 5.13.908 6.126 0 11.88-3.783 14.097-9.873 2.833-7.786-1.181-16.393-8.965-19.227z"/><path d="m52.025 220.635-28.309 10.304c-7.784 2.834-11.798 11.441-8.965 19.227 2.218 6.091 7.97 9.873 14.097 9.873 1.703 0 3.437-.292 5.13-.908l28.309-10.304c7.784-2.834 11.798-11.441 8.965-19.227-2.834-7.785-11.443-11.8-19.227-8.965z"/><path d="m497.125 147.628h-30.125c-8.284 0-15 6.716-15 15s6.716 15 15 15h30.125c8.284 0 15-6.716 15-15s-6.716-15-15-15z"/><path d="m486.683 230.938-28.309-10.304c-7.786-2.831-16.393 1.181-19.227 8.965-2.833 7.785 1.181 16.393 8.965 19.227l28.309 10.304c1.694.616 3.426.908 5.13.908 6.126 0 11.88-3.783 14.097-9.873 2.832-7.785-1.181-16.393-8.965-19.227z"/><path d="m455.095 105.528c1.703 0 3.437-.292 5.13-.908l28.309-10.304c7.784-2.834 11.798-11.441 8.965-19.227-2.835-7.784-11.443-11.8-19.227-8.965l-28.309 10.304c-7.784 2.834-11.798 11.441-8.965 19.227 2.218 6.091 7.97 9.873 14.097 9.873z"/></g></svg>