<svg id="Layer_1" enable-background="new 0 0 512.005 512.005" height="512" viewBox="0 0 512.005 512.005" width="512" xmlns="http://www.w3.org/2000/svg"><g><path d="m485.836 15c0-4.494-2.015-8.751-5.49-11.6-3.476-2.849-8.045-3.988-12.451-3.109l-309.787 61.958c-7.012 1.402-12.059 7.558-12.059 14.708v315.53c-3.943-1.931-8.186-3.503-12.688-4.661-17.159-4.411-36.688-2.773-54.982 4.61-18.295 7.385-33.487 19.761-42.777 34.849-10.036 16.301-12.178 34.605-5.875 50.221 6.303 15.615 20.551 27.304 39.092 32.07 6.315 1.624 12.951 2.428 19.729 2.428 11.637 0 23.691-2.372 35.253-7.039 18.296-7.385 33.487-19.761 42.777-34.849 5.858-9.514 9.005-19.708 9.375-29.653.06-.546.097-289.252.097-289.252l279.787-55.958v297.233c-3.943-1.931-8.186-3.503-12.688-4.661-17.159-4.411-36.687-2.774-54.981 4.61-18.296 7.385-33.488 19.761-42.777 34.849-10.037 16.301-12.179 34.606-5.876 50.221s20.551 27.305 39.092 32.071c6.315 1.624 12.951 2.428 19.729 2.428 11.638 0 23.692-2.372 35.254-7.039 18.295-7.385 33.487-19.761 42.777-34.849 5.858-9.515 9.005-19.71 9.375-29.657.06-.545.096-425.459.096-425.459zm-344.805 439.389c-5.868 9.532-16.242 17.827-28.46 22.758-23.607 9.528-48.802 4.55-55.025-10.869-6.224-15.419 8.459-36.495 32.062-46.022 7.921-3.197 16.264-4.838 24.106-4.838 4.256 0 8.365.483 12.179 1.463 5.413 1.392 15.047 5.093 18.74 14.244h.001c3.693 9.152-.672 18.504-3.603 23.264zm35.018-333.772v-31.363l279.787-55.958v31.364zm246.31 356.53c-12.218 4.932-25.442 6.161-36.285 3.375-5.413-1.392-15.047-5.093-18.741-14.245-3.693-9.151.672-18.503 3.603-23.263 5.869-9.532 16.242-17.827 28.46-22.758 8.146-3.288 16.48-4.848 24.16-4.848 14.575 0 26.79 5.62 30.866 15.718h-.001c1.571 4.171 1.407 6.789 1.423 7.829-.174 14.088-13.688 30.202-33.485 38.192z"/></g></svg>