<svg id="Capa_1" enable-background="new 0 0 508.18 508.18" height="512" viewBox="0 0 508.18 508.18" width="512" xmlns="http://www.w3.org/2000/svg"><g><g><circle cx="403.965" cy="90.343" r="14.883"/><path d="m414.874 18.653c-48.627-10.27-95.724 9.327-122.759 47.238l-289.176 402.725c-9.437 13.137 5.703 29.189 19.265 21.719l104.797-57.687h33.245c49.758 0 97.267-9.663 139.539-28.165v57.931h-44.648c-8.219 0-14.883 6.664-14.883 14.883s6.664 14.883 14.883 14.883h59.531c3.947 0 7.732-1.569 10.523-4.36 5.14-5.14 11.974-7.97 19.242-7.97s14.102 2.831 19.242 7.97c5.811 5.811 15.234 5.812 21.047 0 5.812-5.812 5.812-15.235 0-21.047-10.762-10.762-25.071-16.689-40.29-16.689-5.097 0-10.089.674-14.883 1.963v-62.564c2.272-1.307 4.531-2.631 6.764-3.995 35.43-21.642 82.533-59.08 82.533-134.021v-84.587c17.261 5.644 29.766 21.901 29.766 41.022 0 6.047 3.659 11.493 9.257 13.779 5.598 2.285 12.023.956 16.255-3.363 65.534-66.873 31.452-180.51-59.25-199.665zm-349.288 413.749c.078-.109 155.435-215.553 155.506-215.652 18.68-26.196 46.806-28.658 66.897-22.228 20.092 6.43 41.562 24.765 41.562 56.94 0 21.698-11.782 41.723-30.713 52.24zm330.957-295.431c-4.477 2.58-7.438 7.39-7.461 12.839v101.657c0 46.275-21.059 79.774-68.283 108.62-40.197 24.553-87.841 38.952-138.883 42.124l131.34-72.469c28.411-15.784 46.06-45.78 46.06-78.281 0-39.707-24.437-73.186-62.255-85.288-12.546-4.015-25.255-5.244-37.485-3.935l56.744-79.025c20.896-29.302 56.221-43.077 92.401-35.436 25.858 5.461 47.872 22.898 59.822 45.994zm73.192 36.518c-6.477-12.048-16.238-22.072-28.084-28.871l35.956-21.573c2.283 17.709-.494 35.047-7.872 50.444z"/></g></g></svg>