<svg id="Capa_1" enable-background="new 0 0 508 508" height="512" viewBox="0 0 508 508" width="512" xmlns="http://www.w3.org/2000/svg"><g><g><circle cx="283.766" cy="74.414" r="14.883"/><path d="m417.711 74.414c0-41.032-33.382-74.414-74.414-74.414h-59.531c-73.858 0-133.946 60.088-133.946 133.945v299.641c0 24.619-20.029 44.648-44.648 44.648-8.219 0-14.883 6.664-14.883 14.883s6.664 14.883 14.883 14.883h267.891c8.219 0 14.883-6.664 14.883-14.883 0-24.316-11.743-46.489-30.667-60.223 7.7-8.329 14.753-17.206 21.039-26.584 51.294-76.527 52.58-174.211 3.276-248.864-12.7-19.23-20.418-42.55-22.691-68.15h43.925c8.22.001 14.883-6.663 14.883-14.882zm-238.125 59.531c0-57.445 46.735-104.18 104.18-104.18h44.648s.011 44.803.012 44.881c.104 15.626 1.889 30.733 5.28 45.054-36.515 4.724-64.824 35.996-64.824 73.776v121.047c0 19.403-12.441 35.956-29.766 42.099v-42.099c0-35.936-25.606-66.002-59.531-72.917v-107.661zm119.42 344.289c12.818-7.004 24.867-15.151 35.983-24.291 9.71 5.308 17.027 14 20.653 24.291zm54.587-88.497c-35.371 52.771-98.353 88.497-172.464 88.497h-16.46c9.361-12.445 14.918-27.911 14.918-44.648v-161.151c17.323 6.144 29.766 22.686 29.766 42.089v59.531c0 8.219 6.664 14.883 14.883 14.883 41.032 0 74.414-33.382 74.414-74.414v-121.047c0-24.616 20.024-44.643 44.639-44.648 3.792 8.811 8.289 17.18 13.468 25.023 42.674 64.611 41.432 149.352-3.164 215.885zm4.587-330.206v-27.207c12.666 4.492 22.725 14.541 27.216 27.207z"/></g></g></svg>