<svg id="Capa_1" enable-background="new 0 0 508 508" height="512" viewBox="0 0 508 508" width="512" xmlns="http://www.w3.org/2000/svg"><g><g><circle cx="254" cy="104.18" r="14.883"/><path d="m254 448.469c57.445 0 104.18-46.735 104.18-104.18v-135.93h74.334c8.082.063 14.963-6.599 14.963-14.883v-5.053c0-103.897-84.527-188.423-188.424-188.423-.033 0-.037 0-.031 0-.161 0-1.041 0-5.022 0-49.718 0-104.132 43.468-104.18 104.173v.007 148.828c0 41.412-34.078 76.398-74.414 76.398-8.219 0-14.883 6.664-14.883 14.883 0 57.977 46.986 104.185 104.101 104.181.037 0 44.727-.001 44.727-.001v44.648c0 8.219 6.664 14.883 14.883 14.883h59.531c8.219 0 14.883-6.664 14.883-14.883s-6.664-14.883-14.883-14.883h-44.648v-29.766h14.883zm72.831-269.875c8.694-8.51 15.909-18.523 21.215-29.619 23.02 1.314 43.956 12.13 58.228 29.619zm83.901-36.742c-16.233-12.377-34.841-19.586-53.74-21.928.781-5.136 1.188-10.393 1.188-15.744 0-17.368-4.278-33.754-11.827-48.17 30.365 20.087 53.452 50.324 64.379 85.842zm-231.04-41.697c1.989-37.997 36.155-69.038 76.741-70.328 39.909 1.292 71.981 34.136 71.981 74.353 0 41.032-33.382 74.414-74.414 74.414-42.426 0-76.562-35.408-74.308-78.439zm-10.965 318.442c-38.923 2.039-70.789-25.546-77.213-60.703 48.71-7.805 88.072-51.604 88.072-104.886v-75.928c19.752 20.181 46.109 31.28 74.414 31.28h74.414v29.766h-14.883c-19.881 0-38.61 7.959-52.738 22.412-13.978 14.3-21.676 33.12-21.676 52.995v25.705c0 41.725-31.576 77.327-70.39 79.359zm67.289.106c21.046-20.966 32.867-49.608 32.867-79.467v-25.705c0-24.74 20.446-45.641 44.648-45.641h14.883v76.398c0 41.032-33.382 74.414-74.414 74.414h-17.984z"/></g></g></svg>