<svg id="Layer_1" enable-background="new 0 0 511.545 511.545" height="512" viewBox="0 0 511.545 511.545" width="512" xmlns="http://www.w3.org/2000/svg"><g><path d="m402.861 105.162h-3.678c-11.609 0-22.915 1.787-33.691 5.306-10.571-3.439-21.845-5.306-33.548-5.306h-41.897c-6.535 0-12.97.587-19.274 1.712v-26.592c0-15.451 12.571-28.022 28.022-28.022h5.612v-30h-5.612c-31.994 0-58.022 26.028-58.022 58.022v26.588c-6.299-1.123-12.733-1.708-19.274-1.708h-41.898c-11.705 0-22.98 1.867-33.552 5.307-10.781-3.52-22.085-5.307-33.688-5.307h-3.678c-59.928 0-108.683 48.756-108.683 108.684v166.755c0 59.928 48.755 108.684 108.684 108.684h3.678c11.665 0 22.98-1.783 33.721-5.296 10.563 3.433 21.826 5.296 33.518 5.296h41.898c11.83 0 23.325-1.847 34.257-5.498 10.964 3.694 22.24 5.498 34.292 5.498h41.897c11.703 0 22.977-1.867 33.548-5.306 10.775 3.519 22.08 5.306 33.691 5.306h3.678c59.928 0 108.684-48.755 108.684-108.684v-166.755c-.001-59.928-48.756-108.684-108.685-108.684zm-372.861 275.439v-166.755c0-42.013 33.099-76.441 74.591-78.577-20.736 19.804-33.673 47.708-33.673 78.577v166.755c0 30.869 12.937 58.773 33.673 78.577-41.492-2.137-74.591-36.564-74.591-78.577zm260.047 78.683c-10.213 0-19.606-1.767-28.717-5.401l-5.548-2.213-5.551 2.207c-9.151 3.639-18.549 5.407-28.732 5.407h-41.898c-43.386 0-78.683-35.297-78.683-78.684v-166.754c0-43.386 35.297-78.684 78.683-78.684h41.898c10.18 0 19.579 1.769 28.734 5.407l5.533 2.199 5.536-2.195c9.057-3.591 18.728-5.412 28.746-5.412h41.897c43.386 0 78.684 35.297 78.684 78.684v166.755c0 43.386-35.297 78.684-78.684 78.684zm191.498-78.683c0 42.013-33.099 76.44-74.59 78.577 20.736-19.804 33.673-47.708 33.673-78.577v-166.755c0-30.869-12.937-58.773-33.673-78.577 41.491 2.137 74.59 36.564 74.59 78.577z"/><path d="m129.078 355.432c0 27.206 22.134 49.34 49.339 49.34h154.711c27.206 0 49.339-22.134 49.339-49.34v-60.245h-253.39v60.245zm30-30.245h25.591v24.792h30v-24.792h26.12v24.792h30v-24.792h26.12v24.792h30v-24.792h25.559v30.245c0 10.664-8.676 19.34-19.339 19.34h-154.712c-10.664 0-19.339-8.676-19.339-19.34z"/><path d="m322.112 203.708-39.29 52.078h78.578z"/><path d="m189.466 203.708-39.29 52.078h78.577z"/></g></svg>