<?xml version="1.0" standalone="no"?>
<!DOCTYPE svg PUBLIC "-//W3C//DTD SVG 20010904//EN"
 "http://www.w3.org/TR/2001/REC-SVG-20010904/DTD/svg10.dtd">
<svg version="1.0" xmlns="http://www.w3.org/2000/svg"
 width="1072.000000pt" height="1280.000000pt" viewBox="0 0 1072.000000 1280.000000"
 preserveAspectRatio="xMidYMid meet">
<metadata>
Created by potrace 1.15, written by Peter Selinger 2001-2017
</metadata>
<g transform="translate(0.000000,1280.000000) scale(0.100000,-0.100000)"
 stroke="none">
<path d="M8697 12790 c-98 -11 -263 -51 -375 -90 -199 -70 -460 -223 -792
-464 -343 -251 -564 -432 -1170 -961 -419 -366 -677 -585 -691 -585 -5 0 -9 3
-9 6 0 3 -29 164 -64 358 -36 193 -76 430 -91 526 -89 596 -145 779 -280 915
-137 140 -327 149 -685 33 -408 -133 -3193 -1333 -3640 -1570 -300 -158 -578
-410 -655 -594 -41 -99 -26 -232 40 -350 91 -162 302 -386 500 -528 345 -249
481 -361 631 -519 366 -384 515 -817 484 -1409 -28 -539 -32 -1021 -25 -3078
7 -2088 4 -2329 -26 -2495 -57 -319 -201 -437 -604 -499 -127 -19 -242 -31
-532 -56 -128 -10 -261 -27 -295 -35 -192 -50 -316 -163 -371 -340 -42 -133
-60 -386 -37 -516 5 -30 14 -83 20 -119 27 -154 117 -293 223 -344 28 -14 97
-37 152 -52 l100 -26 2500 5 c2709 6 4661 21 4737 37 155 32 407 278 477 465
24 65 41 189 41 305 -1 220 -86 395 -242 493 -184 116 -415 145 -878 113 -572
-40 -830 43 -961 309 -49 100 -67 170 -79 310 -6 61 -14 777 -20 1600 -12
1960 6 4101 40 4679 23 391 120 667 302 862 110 117 235 192 393 236 70 19
105 22 285 22 189 1 215 -2 335 -28 71 -15 199 -50 284 -78 155 -50 302 -89
506 -133 158 -34 227 -44 377 -54 837 -54 1543 365 1927 1143 67 136 141 348
166 476 22 112 30 369 16 495 -27 250 -137 527 -299 754 -82 116 -259 302
-367 386 -257 201 -529 322 -850 382 -97 17 -390 25 -498 13z"/>
</g>
</svg>
