<?xml version="1.0" standalone="no"?>
<!DOCTYPE svg PUBLIC "-//W3C//DTD SVG 20010904//EN"
 "http://www.w3.org/TR/2001/REC-SVG-20010904/DTD/svg10.dtd">
<svg version="1.0" xmlns="http://www.w3.org/2000/svg"
 width="1280.000000pt" height="1280.000000pt" viewBox="0 0 1280.000000 1280.000000"
 preserveAspectRatio="xMidYMid meet">
<metadata>
Created by potrace 1.15, written by Peter Selinger 2001-2017
</metadata>
<g transform="translate(0.000000,1280.000000) scale(0.100000,-0.100000)"
 stroke="none">
<path d="M7850 11006 c-19 -7 -144 -65 -276 -129 -230 -110 -243 -115 -280
-106 -47 11 -1043 171 -1199 193 -388 53 -866 44 -1275 -25 -549 -92 -1059
-320 -1402 -626 -315 -283 -525 -640 -598 -1020 -85 -441 -18 -938 181 -1334
54 -108 164 -277 234 -359 117 -137 740 -781 825 -854 584 -499 1536 -901
3065 -1296 387 -100 812 -236 827 -264 17 -31 22 -231 9 -345 -30 -255 -122
-489 -261 -666 -94 -121 -275 -279 -415 -365 -207 -127 -476 -210 -778 -241
-159 -15 -577 -7 -717 16 -353 55 -594 131 -905 285 -392 194 -700 423 -1086
809 -195 196 -358 376 -527 581 -80 99 -125 125 -217 125 -67 0 -76 -3 -205
-69 -74 -37 -150 -82 -168 -99 -48 -46 -72 -103 -72 -172 0 -54 31 -130 499
-1224 485 -1131 509 -1184 804 -1781 167 -338 316 -629 331 -647 43 -51 118
-83 195 -83 65 0 72 3 464 191 511 245 479 238 831 190 133 -18 294 -44 360
-57 284 -58 596 -96 901 -110 240 -11 617 24 930 87 699 140 1294 444 1764
903 387 379 613 806 702 1327 20 115 23 171 23 399 1 172 -4 296 -12 355 -103
690 -437 1186 -1057 1566 -201 124 -1321 759 -1470 834 -423 213 -907 389
-1680 610 -606 174 -1218 381 -1277 432 -27 24 -87 154 -108 238 -39 152 -23
430 36 625 146 481 568 778 1229 865 157 20 425 29 550 17 99 -9 101 -9 229
-81 584 -327 1121 -857 1434 -1415 28 -51 55 -84 80 -100 20 -13 316 -140 657
-282 758 -316 669 -300 923 -168 95 49 188 102 207 117 56 46 87 108 92 185 5
67 4 69 -456 1381 -254 723 -471 1330 -483 1348 -27 40 -98 90 -147 103 -45
11 -1195 150 -1242 150 -19 -1 -50 -7 -69 -14z"/>
</g>
</svg>
