<svg id="Layer_1" enable-background="new 0 0 512.239 512.239" height="512" viewBox="0 0 512.239 512.239" width="512" xmlns="http://www.w3.org/2000/svg"><g><path d="m465.237 209.117c0-115.307-93.81-209.117-209.118-209.117s-209.117 93.81-209.117 209.117c0 27.194 5.114 53.525 15.215 78.42-9.765 11.518-15.202 26.145-15.202 41.533 0 28.297 18.378 52.367 43.82 60.945v58.779c0 34.983 28.46 63.443 63.443 63.443h203.683c34.983 0 63.443-28.46 63.443-63.443v-58.779c25.441-8.578 43.82-32.648 43.82-60.945 0-15.388-5.438-30.015-15.203-41.534 10.102-24.894 15.216-51.224 15.216-78.419zm-107.276 273.122h-203.683c-18.441 0-33.443-15.002-33.443-33.443v-55.412h28.332v60.524h213.906v-60.524h28.332v55.412c-.001 18.44-15.003 33.443-33.444 33.443zm64.703-179.703c7.982 6.555 12.56 16.226 12.56 26.535 0 18.92-15.393 34.313-34.313 34.313h-67.839v60.524h-31.951v-43.511h-30v43.511h-30.004v-43.511h-30v43.511h-31.951v-60.524h-67.84c-18.92 0-34.312-15.393-34.312-34.313 0-10.309 4.578-19.979 12.56-26.534l8.988-7.38-4.908-10.543c-11.05-23.734-16.652-49.135-16.652-75.496 0-98.766 80.352-179.118 179.117-179.118s179.118 80.352 179.118 179.117c0 26.361-5.603 51.762-16.652 75.496l-4.908 10.543z"/><path d="m166.114 180.637c-25.416 0-46.093 20.677-46.093 46.093s20.677 46.093 46.093 46.093 46.093-20.677 46.093-46.093-20.677-46.093-46.093-46.093zm0 62.186c-8.874 0-16.093-7.219-16.093-16.093s7.219-16.093 16.093-16.093 16.093 7.219 16.093 16.093-7.219 16.093-16.093 16.093z"/><path d="m346.125 180.637c-25.416 0-46.093 20.677-46.093 46.093s20.677 46.093 46.093 46.093 46.093-20.677 46.093-46.093-20.677-46.093-46.093-46.093zm0 62.186c-8.874 0-16.093-7.219-16.093-16.093s7.219-16.093 16.093-16.093 16.093 7.219 16.093 16.093-7.219 16.093-16.093 16.093z"/><path d="m219.79 313.13 18.139 23.895 18.19-13.809 18.19 13.809 18.14-23.895-36.33-27.58z"/></g></svg>