<svg id="Layer_1" enable-background="new 0 0 512.019 512.019" height="512" viewBox="0 0 512.019 512.019" width="512" xmlns="http://www.w3.org/2000/svg"><path d="m512.019 271.009v-30h-24.132l-57.314-138.35 17.07-17.07-21.213-21.213-17.08 17.08-138.341-57.324v-24.132h-30v24.132l-138.349 57.315-17.07-17.07-21.213 21.213 17.079 17.079-57.324 138.34h-24.132v30h24.132l57.314 138.35-17.07 17.07 21.213 21.213 17.079-17.079 138.341 57.324v24.132h30v-24.132l138.35-57.314 17.07 17.07 21.213-21.213-17.079-17.079 57.324-138.341h24.132zm-56.605-30h-31.427l-38.597-93.167 22.222-22.222zm-184.405-56.132 24.689 10.23-24.689 24.689zm-30 34.919-24.692-24.692 24.692-10.229zm-21.213 21.213h-34.92l10.23-24.689zm0 30-24.692 24.692-10.229-24.692zm21.213 21.213v34.92l-24.689-10.23zm30 0 24.692 24.692-24.692 10.229zm21.213-21.213h34.92l-10.23 24.689zm0-30 24.692-24.692 10.229 24.692zm26.436-68.862-47.649-19.744v-31.898l70.202 29.089zm-77.649-19.744-47.652 19.741-22.555-22.555 70.207-29.085zm-68.862 40.957-19.744 47.649h-31.898l29.089-70.202zm-19.744 77.649 19.741 47.652-22.555 22.555-29.085-70.207zm40.957 68.862 47.649 19.744v31.898l-70.202-29.089zm77.649 19.745 47.652-19.741 22.555 22.555-70.207 29.085zm68.862-40.958 19.744-47.649h31.898l-29.089 70.202zm19.745-77.649-19.741-47.652 22.555-22.555 29.085 70.207zm26.774-136.594-22.22 22.22-93.161-38.603v-31.427zm-145.381-47.811v31.428l-93.168 38.597-22.222-22.222zm-136.594 69.024 22.22 22.22-38.603 93.161h-31.427zm-47.81 145.381h31.427l38.597 93.167-22.222 22.222zm69.023 136.594 22.22-22.22 93.161 38.603v31.427zm145.381 47.811v-31.427l93.168-38.597 22.222 22.222zm136.594-69.024-22.22-22.22 38.603-93.161h31.427z"/></svg>