<svg id="Layer_1" enable-background="new 0 0 512 512" height="512" viewBox="0 0 512 512" width="512" xmlns="http://www.w3.org/2000/svg"><g><path d="m503.708 167.271-241-120.5c-4.223-2.111-9.193-2.111-13.416 0l-241 120.5c-5.082 2.541-8.292 7.735-8.292 13.417s3.21 10.875 8.292 13.417l112.208 56.103v101.229c0 1.908.364 3.799 1.073 5.571 1.138 2.845 29.082 69.679 134.427 69.679 31.662 0 56.323-6.041 75.375-14.563v39.688c0 8.284 6.716 15 15 15h60.25c8.284 0 15-6.716 15-15v-60.25c0-3.978-1.58-7.793-4.394-10.606l-25.731-25.731v-105.017l112.208-56.104c5.082-2.541 8.292-7.735 8.292-13.417s-3.21-10.875-8.292-13.416zm-112.083 269.542h-30.25v-39.037l15.125-15.125 15.125 15.125zm-30.125-88.744c-5.191 9.765-30.576 48.619-105.5 48.619-74.717 0-100.141-38.582-105.5-48.646v-82.834l98.792 49.396c2.111 1.056 4.409 1.583 6.708 1.583s4.597-.528 6.708-1.583l98.792-49.396zm15-123.902-113.792-56.896c-7.409-3.705-16.42-.701-20.124 6.708-3.705 7.41-.702 16.419 6.708 20.125l93.667 46.833-86.959 43.48-207.459-103.729 207.459-103.73 207.459 103.729z"/></g></svg>