<svg id="Capa_1" enable-background="new 0 0 512 512" height="512" viewBox="0 0 512 512" width="512" xmlns="http://www.w3.org/2000/svg"><g><path d="m509.548 388.693-88.192-135.968c-3.919-6.042-11.581-8.444-18.246-5.726-33.524 13.669-69.149-13.085-64.892-47.012 1.032-8.229-4.821-15.744-13.057-16.753-20.204-2.477-35.44-19.152-35.44-38.788 0-14.292 8.11-27.447 21.167-34.331 7.469-3.938 10.223-13.282 6.063-20.645-26.999-47.784-12.792-23.526-48.196-82.229-5.691-9.436-19.238-9.665-25.307-.596-42.393 63.348 12.52-23.123-241.129 382.438-3.667 5.863-2.85 13.474 1.979 18.425 135.642 139.076 367.265 139.632 503.413-.191 4.886-5.017 5.648-12.748 1.837-18.624zm-254.295-345.757c18.503 30.679 11.932 19.434 28.813 49.309-15.288 12.971-24.341 31.909-24.341 52.2 0 30.159 19.989 56.336 48.278 65.565 2.777 46.074 48.134 79.433 94.394 68.607l25.438 39.217c-93.194 98.937-252.465 98.275-344.886-1.101 176.399-282.047 150.579-241.331 172.304-273.797zm-221.136 351.874 32.416-51.83c102.794 104.417 274.308 105.335 378.062.694l33.147 51.103c-121.794 116.003-321.047 116.726-443.625.033z"/><path d="m221.032 301.279c-8.283 0-14.998 6.715-14.998 14.998v18.972c0 8.283 6.715 14.998 14.998 14.998s14.998-6.715 14.998-14.998v-18.972c0-8.283-6.715-14.998-14.998-14.998z"/><path d="m307.001 337.321c8.283 0 14.998-6.715 14.998-14.998v-18.972c0-8.283-6.715-14.998-14.998-14.998s-14.998 6.715-14.998 14.998v18.972c0 8.284 6.715 14.998 14.998 14.998z"/><path d="m173.292 293.391c8.283 0 14.998-6.715 14.998-14.998v-18.972c0-8.283-6.715-14.998-14.998-14.998s-14.998 6.715-14.998 14.998v18.972c0 8.283 6.715 14.998 14.998 14.998z"/><path d="m217.775 228.72c8.283 0 14.998-6.715 14.998-14.998v-18.972c0-8.283-6.715-14.998-14.998-14.998s-14.998 6.715-14.998 14.998v18.972c0 8.283 6.715 14.998 14.998 14.998z"/></g></svg>